<mxfile host="app.diagrams.net" modified="2024-02-28T02:08:56.957Z" agent="Mozilla/5.0 (Windows NT 10.0; Win64; x64) AppleWebKit/537.36 (KHTML, like Gecko) Chrome/121.0.0.0 Safari/537.36" version="23.1.7" etag="7y59_8bJUE41VL0KG3rm" type="github">
  <diagram name="第 1 页" id="5uoFX3MJ568cLQlQq2z3">
    <mxGraphModel>
      <root>
        <mxCell id="0" />
        <mxCell id="1" parent="0" />
      </root>
    </mxGraphModel>
  </diagram>
</mxfile>
